<?xml version="1.0" encoding="UTF-8" standalone="no"?>
<svg xmlns="http://www.w3.org/2000/svg" height="128" width="128" version="1.1" viewBox="0 0 128 128">
	<defs>
		<filter id="tint-over" style="color-interpolation-filters:sRGB">
			<feFlood result="flood" flood-opacity=".19608" flood-color="rgb(255,255,255)"/>
			<feComposite operator="out" result="composite1" in2="SourceGraphic" in="flood"/>
			<feGaussianBlur stdDeviation="0" result="blur" in="composite1"/>
			<feOffset result="offset" dx="4.57967e-15" dy="4"/>
			<feComposite operator="atop" result="composite2" in2="SourceGraphic" in="offset"/>
		</filter>
		<filter id="tint-under" style="color-interpolation-filters:sRGB">
			<feFlood result="flood" flood-opacity=".2" flood-color="rgb(38,50,56)"/>
			<feComposite operator="out" result="composite1" in2="SourceGraphic" in="flood"/>
			<feGaussianBlur stdDeviation="0" result="blur" in="composite1"/>
			<feOffset result="offset" dx="4.57967e-15" dy="-4"/>
			<feComposite operator="atop" result="composite2" in2="SourceGraphic" in="offset"/>
		</filter>
	</defs>
	<g id="tint-under-group" filter="url(#tint-under)">
		<g id="tint-over-group" filter="url(#tint-over)">
			<path id="white-background" fill="#fff" d="m24.727 26.908c-4.8 0-8.7266 3.9285-8.7266 8.7285v56.727c0 4.8 3.9266 8.7285 8.7266 8.7285h78.547c4.8 0 8.7266-3.9285 8.7266-8.7285v-56.727c0-4.8-3.9266-8.7285-8.7266-8.7285h-78.547z"/>
			<path id="chrome-reader-mode" d="m68.364 61.818h30.545v6.5455h-30.545zm0-10.909h30.545v6.5455h-30.545zm0 21.818h30.545v6.5455h-30.545zm34.909-45.818h-78.545c-4.8 0-8.7273 3.9273-8.7273 8.7273v56.727c0 4.8 3.9273 8.7273 8.7273 8.7273h78.545c4.8 0 8.7273-3.9273 8.7273-8.7273v-56.727c0-4.8-3.9273-8.7273-8.7273-8.7273zm0 65.455h-39.273v-56.728l39.273 0.000366z" fill="#9c27b0"/>
			<g id="bubbles" fill="#fff" transform="translate(.11657 .0069408)">
				<circle cy="68.8" cx="30.15" r="6.4"/>
				<circle cy="76" cx="45.35" r="4"/>
				<circle cy="57.6" cx="46.15" r="9.6"/>
			</g>
		</g>
	</g>
</svg>
